<svg id="Layer_1" data-name="Layer 1" xmlns="http://www.w3.org/2000/svg" viewBox="0 0 2000 2000"><path d="M1215.12,1691.28a231.94,231.94,0,0,0-51-251.47l-75.51-75.5-43,43,75.5,75.5c66.77,66.77,66.77,175.42,0,242.19a171.25,171.25,0,1,1-242.18-242.18L954,1407.75l-43-43.13-75.2,75.2a232.13,232.13,0,1,0,379.26,251.46ZM927.8,1347.88l43,43.13,29.23-29.23,28.85,28.84,43-43-28.84-28.84L1207.77,1154l-43-43L1000,1275.68,836.15,1111.83l-43,43.05L957,1318.73Z"/><path d="M724.32,1000,888.18,836.15l-43-43L681.28,957,651.5,927.17l-43.14,43L638.23,1000l-28.84,28.84,43,43.05,28.85-28.84L846,1207.76l43-43ZM517.14,1121.09c-66.77,66.77-175.41,66.77-242.17,0A171.24,171.24,0,0,1,517.14,878.92l74.49,74.48,43.13-43-74.57-74.56a232.25,232.25,0,1,0,0,328.27l75.51-75.51-43-43.05Z"/><path d="M1043,681.28l29.79-29.79-43-43.12L1000,638.23l-29.47-29.46-43,43L957,681.28,792.23,846l43,43L1000,724.33l163.85,163.85,43.05-43Zm172.08-197.89A232.23,232.23,0,1,0,835.86,560.2l74.88,74.87,43-43-74.88-74.88a171.28,171.28,0,0,1,0-242.19c66.76-66.76,175.41-66.76,242.18,0a171.45,171.45,0,0,1,0,242.17l-74.49,74.49,43,43.12,74.57-74.56A230.78,230.78,0,0,0,1215.12,483.39Z"/><path d="M1361.77,1000l29.48-29.48-43.06-43L1318.72,957,1154,792.24l-43,43L1275.67,1000l-163.85,163.85,43,43.06,163.85-163.85,29.16,29.15,43.12-43Zm457.3,87.33a232.11,232.11,0,0,0-379.25-251.47l-74.89,74.87,43.06,43,74.87-74.87a171.24,171.24,0,1,1,0,242.17l-75.11-75.1-43.12,43,75.18,75.18a232.23,232.23,0,0,0,379.26-76.8Z"/><path d="M1237.84,1182.24l-55.58,55.58,55.68-55.48Z"/><path d="M762.18,1182.26l55.48,55.68.1-.1Z"/><path d="M762.05,817.66l.11.1,54-54Z"/><path d="M1092.24,1513.57l-76-76.27L1199,1254.59l165.65-165,43.13-43,29.53-29.42,76.29,76.29a131.31,131.31,0,1,0,0-185.73l-76.27,76L1253.49,799.92,1089.57,635.37l-43-43.12-29.4-29.53,76.29-76.28c51.2-51.19,51.2-134.52,0-185.71s-134.51-51.19-185.71,0a131.31,131.31,0,0,0,0,185.69l76,76.27L799.46,747,634.75,911.06l-43.13,43-28.89,28.79-76.29-76.29a131.32,131.32,0,0,0-185.71,185.71c51.2,51.2,134.5,51.2,185.69,0l76.28-76L745.41,1199l165.65,166.27,43,43.13,28.79,28.9-76.29,76.29c-51.2,51.2-51.2,134.51,0,185.71s134.51,51.2,185.71,0S1143.43,1564.76,1092.24,1513.57ZM1530.3,924.51a107.64,107.64,0,1,1,0,152.23L1454,1000.48Zm-1060.6,151a107.64,107.64,0,1,1,0-152.22L546,999.51ZM1000.48,546l-76-76.25a107.65,107.65,0,1,1,152.23,0ZM1391,1029.86l-43.13,43-109.93,109.51-55.68,55.48L999.55,1420.53l-28.79-28.89-43-43.14L817.66,1237.94l-55.48-55.68L579.47,999.55l28.89-28.79,43.13-43L762.05,817.66l54.12-53.92,184.28-184.28L1029.86,609l43,43.12,109.52,109.95,54.36,54.56,183.82,183.82ZM923.25,1682.53a107.78,107.78,0,0,1,0-152.23L999.52,1454l76,76.26a107.65,107.65,0,1,1-152.25,152.23Z"/><path d="M1182.35,762.06l-.1.1,54.46,54.46Z"/></svg>